<svg xmlns="http://www.w3.org/2000/svg" xmlns:xlink="http://www.w3.org/1999/xlink" version="1.1" id="Слой_1" x="0px" y="0px" viewBox="0 0 253.7 51.6" style="enable-background:new 0 0 253.7 51.6;" xml:space="preserve" m_init="2270459202004171229">
<style>
.st5 {
  font-family: 'Tahoma', sans-serif;
}

.st6 {
  font-size: 13.5203px;
}
</style>
<path id="XMLID_507_" class="st0" fill ="#5AA5DC" d="M14.3,19.8c-4.6,1.4-8.8,1-13.5-2c0,1.1,0.1,2.7,0.2,3.7c2.4,1.9,8.1,3.2,14.2,1.2  c10.8-3.6,15.8,2.1,17,3.2c0.3-1,0.6-2.2,0.8-3.2C26.7,17.1,20.1,18,14.3,19.8z"/>
<path id="XMLID_504_" class="st0" fill ="#5AA5DC" d="M13.6,26.1c-4.4,1.5-7.6,1.4-12-0.9c3,12.7,13.2,23.2,13.7,23.7l1,1.1l1.1-1  c0.5-0.5,9.4-9.1,13.6-20C31.2,28.7,25.3,22.2,13.6,26.1z M16.5,45.7c-2.1-2.4-7-8.4-10-15.6c2.1,0.2,4.7,0,8.1-1  c7-2,10.6-0.5,12.8,0.9C24,37.3,18.7,43.3,16.5,45.7z"/>
<path id="XMLID_501_" class="st0" fill ="#5AA5DC" d="M17.4,1.9c-0.1,0-0.2,0-0.3,0C9.3,1.9,2.7,7.4,1.2,14.7C3.4,16,7,19.1,15.8,16.5  c4.4-1.3,10-3,17.4,3c0-0.3,0-0.6,0-1C33.5,9.5,26.3,2.1,17.4,1.9z M14.9,13.6c-5.7,1.7-8.7,0.7-10.2-0.2c2-5,6.8-8.5,12.3-8.5h0.3  c5.6,0.1,10.4,3.8,12.2,8.8C24.8,11.4,20.3,11.9,14.9,13.6z"/>
<path id="XMLID_500_" class="st0" fill ="#5AA5DC" d="M224.7,7.7c-5.5,0-10.9,0-16.4,0c0,1,0,1.9,0,2.9c2.1,0,4.3,0,6.4,0c0,6.4,0,12.9,0,19.3  c1.1,0,2.2,0,3.4,0c0-6.5,0-12.9,0-19.4c2.2,0,4.4,0,6.6,0C224.7,9.7,224.7,8.7,224.7,7.7z"/>
<polygon id="XMLID_499_" class="st0" fill ="#5AA5DC" points="252,13.9 239.5,13.9 239.5,16.8 244.1,16.8 244.1,29.7 247.4,29.7 247.4,16.8   252,16.8 "/>
<polygon id="XMLID_498_" class="st1" fill = '#6D6F73' points="150.1,29.7 153.3,29.7 153.3,13.9 150.1,13.9 150,19.9 144.2,19.9 144.2,13.9   140.9,13.9 140.9,29.7 144.2,29.7 144.2,23.1 150.1,23.1 "/>
<path id="XMLID_492_" class="st1" fill = '#6D6F73' d="M197.7,20.7c0-2.6,0.1-3.2-1.5-3.8c-1.7-0.6-3.8-0.2-5.1,1c-0.3-0.3-1.5-1.6-1.9-1.9  c0.9-1.1,2-1.8,3.3-2.1c1.7-0.4,3.4-0.4,5.1,0.2c1.4,0.5,2.5,1.4,3.1,2.8c0.3,0.6,0.4,1.2,0.4,1.9c0,3.4,0,10.3,0,10.3  c-0.9,0.4-1.9,0.6-2.8,0.8c-1.5,0.3-3,0.4-4.5,0.2c-1.2-0.1-2.4-0.4-3.4-1.1c-1.5-1.1-1.9-2.6-1.7-4.3c0.3-2.6,2.1-3.8,4.2-4.3  c1.5-0.3,2.9-0.2,4.3,0.2C197.4,20.6,197.5,20.6,197.7,20.7z M197.8,23.3c-1-0.4-2.3-0.6-3.4-0.5c-0.5,0.1-1,0.2-1.4,0.5  c-0.7,0.5-1.1,1.2-1,2.1s0.7,1.4,1.6,1.6c0.9,0.2,2.9,0.2,4.2-0.2C197.8,25.7,197.8,23.3,197.8,23.3z"/>
<path id="XMLID_491_" class="st1" fill = '#6D6F73' d="M188.1,13.9h-4.2c-1.9,2.1-4.3,4.6-6.2,6.6v-6.6h-3.3c0,2.2,0,15.8,0,15.8h3.3V25l1.4-1.5  l4.8,6.2h3.9c-2.5-3.2-5.3-6.9-6.5-8.5L188.1,13.9z"/>
<polygon id="XMLID_490_" class="st1" fill = '#6D6F73' points="166.6,13.9 160.8,24.6 160.8,13.9 157.5,13.9 157.5,29.7 160.8,29.7 160.8,29.7   161.3,29.7 167.1,19.1 167.1,29.7 170.4,29.7 170.4,13.9 "/>
<polygon id="XMLID_488_" class="st1" fill = '#6D6F73' points="133.5,21.8 138.7,13.9 134.8,13.9 131.5,19.2 128.1,13.9 124.2,13.9 129.6,21.8   124.2,29.7 128.1,29.7 131.5,24.5 134.8,29.7 138.7,29.7 "/>
<path id="XMLID_485_" class="st1" fill = '#6D6F73' d="M121.7,26.8c-1.3,2-3.1,3.1-5.4,3.2c-1.5,0.1-2.9-0.2-4.1-1c-1.4-0.9-2.3-2.1-2.4-3.8  c-0.1-1.2-0.1-5.8,0-7c0.1-1.7,1-2.9,2.5-3.7c1.4-0.8,3-1.1,4.6-0.9c1.2,0.1,2.3,0.5,3.3,1.2c1.3,0.9,1.9,2.2,2,3.7  c0.1,1.6,0.1,4.9,0.1,4.9h-9.1c0,0,0,1.1,0.1,1.6c0.2,1,1,1.5,1.9,1.7c1.3,0.3,2.9,0,3.8-1.5C119.8,25.7,120.7,26.2,121.7,26.8z   M118.9,20.5c0-0.6,0-1.1,0-1.7c0-0.8-0.5-1.3-1.2-1.6c-1.1-0.5-2.2-0.5-3.3-0.1c-0.7,0.3-1.2,0.8-1.3,1.5c-0.1,0.6,0,1.2,0,1.9  C115.1,20.5,117,20.5,118.9,20.5z"/>
<polygon id="XMLID_484_" class="st1" fill = '#6D6F73' points="107.7,13.9 95.3,13.9 95.3,16.8 99.8,16.8 99.8,29.7 103.2,29.7 103.2,16.8   107.7,16.8 "/>
<polygon id="XMLID_483_" class="st1" fill = '#6D6F73' points="89.4,13.9 89.4,19.9 83.5,19.9 83.5,13.9 80.2,13.9 80.2,29.7 83.5,29.7 83.5,23.1   89.4,23.1 89.4,29.7 92.7,29.7 92.7,13.9 "/>
<path id="XMLID_480_" class="st1" fill = '#6D6F73' d="M73.1,20.7c0-2.6,0.1-3.2-1.5-3.8c-1.7-0.6-3.8-0.2-5.1,1c-0.3-0.3-1.5-1.6-1.9-1.9  c0.9-1.1,2-1.8,3.4-2.1c1.7-0.4,3.4-0.4,5.1,0.2c1.4,0.5,2.5,1.4,3.1,2.8c0.3,0.6,0.4,1.2,0.4,1.9c0,3.4,0,10.2,0,10.3  c-0.9,0.4-1.9,0.6-2.8,0.8c-1.5,0.3-3,0.4-4.5,0.2c-1.2-0.1-2.4-0.4-3.4-1.1c-1.5-1.1-1.9-2.6-1.7-4.3c0.3-2.6,2.1-3.8,4.2-4.3  c1.5-0.3,2.9-0.2,4.3,0.2C72.7,20.6,72.9,20.6,73.1,20.7z M73.1,23.3c-1-0.4-2.3-0.6-3.4-0.5c-0.5,0.1-1,0.2-1.4,0.5  c-0.7,0.5-1.1,1.2-1,2.1s0.7,1.4,1.6,1.6s2.9,0.2,4.2-0.2C73.1,25.7,73.1,23.3,73.1,23.3z"/>
<g id="XMLID_478_">
	<path id="XMLID_479_" class="st1" fill = '#6D6F73' d="M59.5,23.6c1,0.5,2.1,1,3.1,1.5c-0.6,1.2-1.4,2.2-2.4,3.1c-1.8,1.4-3.7,2-6,2   c-2-0.1-3.9-0.6-5.5-1.8c-1.5-1.2-2.5-2.7-2.5-4.7c0-3.2,0-6.4,0-9.5c0-1.7,0.8-3.2,2.2-4.3c2-1.7,4.3-2.2,6.8-2.1   c3.4,0.2,5.8,1.9,7.4,4.9c-1.1,0.5-2.1,1-3.1,1.5c-0.5-0.5-0.9-1.1-1.4-1.6c-1-0.9-2.3-1.3-3.6-1.3c-1.1,0-2.2,0.2-3.1,0.8   c-1.1,0.6-1.7,1.5-1.7,2.8c0,2.6,0,5.2,0,7.8c0,1.6,0.7,2.7,2.1,3.3c2.1,0.9,4.1,0.8,6.1-0.6C58.4,25,59,24.2,59.5,23.6z"/>
</g>
<path id="XMLID_477_" class="st0" fill ="#5AA5DC" d="M227.9,13.9c0,0,0,7,0,10c0,1.9,1,2.7,2.5,3c1.1,0.2,2.1,0.1,3.1-0.4c0.1-0.1,0.2-0.2,0.4-0.3  c0-4.1,0-12.4,0-12.4h3.3c0,0,0,10.8,0,15.9c0,0.7,0,1.4-0.2,2.1c-0.5,1.7-1.6,2.9-3.2,3.5c-2.8,1-5.4,0.7-7.8-1  c-0.5-0.3-0.9-0.8-1.3-1.3c0.7-0.7,1.4-1.3,2.1-1.9c0.2,0.2,0.3,0.3,0.5,0.4c1.4,1.2,3,1.6,4.8,1.1c1.2-0.3,2.3-1.7,1.9-3.2  c-1.2,0.4-2.4,0.6-3.6,0.5c-2.1-0.2-3.9-1-5.1-2.9c-0.4-0.7-0.7-1.5-0.7-2.3c0-3.5,0-10.9,0-10.9L227.9,13.9L227.9,13.9z"/>
<line id="XMLID_431_" class="st2" fill ="none" x1="45.5" y1="33.9" x2="201.5" y2="33.9"/>
<text transform="matrix(1.0317 0 0 1 46.1997 46.4551)" class="st1 st5 st6" fill = '#6D6F73'>оставайтесь дома, мы привезем</text>
</svg>