<svg xmlns="http://www.w3.org/2000/svg" viewBox="0 0 253.7 51.6"><path class="st0" fill="#5AA5DC" d="M14.3 19.8c-4.6 1.4-8.8 1-13.5-2 0 1.1.1 2.7.2 3.7 2.4 1.9 8.1 3.2 14.2 1.2 10.8-3.6 15.8 2.1 17 3.2.3-1 .6-2.2.8-3.2-6.3-5.6-12.9-4.7-18.7-2.9z"/><path class="st0" fill="#5AA5DC" d="M13.6 26.1c-4.4 1.5-7.6 1.4-12-.9 3 12.7 13.2 23.2 13.7 23.7l1 1.1 1.1-1c.5-.5 9.4-9.1 13.6-20 .2-.3-5.7-6.8-17.4-2.9zm2.9 19.6c-2.1-2.4-7-8.4-10-15.6 2.1.2 4.7 0 8.1-1 7-2 10.6-.5 12.8.9-3.4 7.3-8.7 13.3-10.9 15.7zm.9-43.8h-.3C9.3 1.9 2.7 7.4 1.2 14.7 3.4 16 7 19.1 15.8 16.5c4.4-1.3 10-3 17.4 3v-1c.3-9-6.9-16.4-15.8-16.6zm-2.5 11.7c-5.7 1.7-8.7.7-10.2-.2 2-5 6.8-8.5 12.3-8.5h.3c5.6.1 10.4 3.8 12.2 8.8-4.7-2.3-9.2-1.8-14.6-.1zm209.8-5.9h-16.4v2.9h6.4v19.3h3.4V10.5h6.6V7.7zm27.3 6.2h-12.5v2.9h4.6v12.9h3.3V16.8h4.6z"/><path class="st1" fill="#6D6F73" d="M150.1 29.7h3.2V13.9h-3.2l-.1 6h-5.8v-6h-3.3v15.8h3.3v-6.6h5.9zm47.6-9c0-2.6.1-3.2-1.5-3.8-1.7-.6-3.8-.2-5.1 1-.3-.3-1.5-1.6-1.9-1.9.9-1.1 2-1.8 3.3-2.1 1.7-.4 3.4-.4 5.1.2 1.4.5 2.5 1.4 3.1 2.8.3.6.4 1.2.4 1.9v10.3c-.9.4-1.9.6-2.8.8-1.5.3-3 .4-4.5.2-1.2-.1-2.4-.4-3.4-1.1-1.5-1.1-1.9-2.6-1.7-4.3.3-2.6 2.1-3.8 4.2-4.3 1.5-.3 2.9-.2 4.3.2.2 0 .3 0 .5.1zm.1 2.6c-1-.4-2.3-.6-3.4-.5-.5.1-1 .2-1.4.5-.7.5-1.1 1.2-1 2.1s.7 1.4 1.6 1.6c.9.2 2.9.2 4.2-.2v-3.5zm-9.7-9.4h-4.2c-1.9 2.1-4.3 4.6-6.2 6.6v-6.6h-3.3v15.8h3.3V25l1.4-1.5 4.8 6.2h3.9c-2.5-3.2-5.3-6.9-6.5-8.5l6.8-7.3zm-21.5 0l-5.8 10.7V13.9h-3.3v15.8h3.8l5.8-10.6v10.6h3.3V13.9zm-33.1 7.9l5.2-7.9h-3.9l-3.3 5.3-3.4-5.3h-3.9l5.4 7.9-5.4 7.9h3.9l3.4-5.2 3.3 5.2h3.9zm-11.8 5c-1.3 2-3.1 3.1-5.4 3.2-1.5.1-2.9-.2-4.1-1-1.4-.9-2.3-2.1-2.4-3.8-.1-1.2-.1-5.8 0-7 .1-1.7 1-2.9 2.5-3.7 1.4-.8 3-1.1 4.6-.9 1.2.1 2.3.5 3.3 1.2 1.3.9 1.9 2.2 2 3.7.1 1.6.1 4.9.1 4.9h-9.1s0 1.1.1 1.6c.2 1 1 1.5 1.9 1.7 1.3.3 2.9 0 3.8-1.5.8.5 1.7 1 2.7 1.6zm-2.8-6.3v-1.7c0-.8-.5-1.3-1.2-1.6-1.1-.5-2.2-.5-3.3-.1-.7.3-1.2.8-1.3 1.5-.1.6 0 1.2 0 1.9h5.8zm-11.2-6.6H95.3v2.9h4.5v12.9h3.4V16.8h4.5zm-18.3 0v6h-5.9v-6h-3.3v15.8h3.3v-6.6h5.9v6.6h3.3V13.9zm-16.3 6.8c0-2.6.1-3.2-1.5-3.8-1.7-.6-3.8-.2-5.1 1-.3-.3-1.5-1.6-1.9-1.9.9-1.1 2-1.8 3.4-2.1 1.7-.4 3.4-.4 5.1.2 1.4.5 2.5 1.4 3.1 2.8.3.6.4 1.2.4 1.9v10.3c-.9.4-1.9.6-2.8.8-1.5.3-3 .4-4.5.2-1.2-.1-2.4-.4-3.4-1.1-1.5-1.1-1.9-2.6-1.7-4.3.3-2.6 2.1-3.8 4.2-4.3 1.5-.3 2.9-.2 4.3.2 0 0 .2 0 .4.1zm0 2.6c-1-.4-2.3-.6-3.4-.5-.5.1-1 .2-1.4.5-.7.5-1.1 1.2-1 2.1s.7 1.4 1.6 1.6 2.9.2 4.2-.2v-3.5zm-13.6.3c1 .5 2.1 1 3.1 1.5-.6 1.2-1.4 2.2-2.4 3.1-1.8 1.4-3.7 2-6 2-2-.1-3.9-.6-5.5-1.8-1.5-1.2-2.5-2.7-2.5-4.7v-9.5c0-1.7.8-3.2 2.2-4.3 2-1.7 4.3-2.2 6.8-2.1 3.4.2 5.8 1.9 7.4 4.9-1.1.5-2.1 1-3.1 1.5-.5-.5-.9-1.1-1.4-1.6-1-.9-2.3-1.3-3.6-1.3-1.1 0-2.2.2-3.1.8-1.1.6-1.7 1.5-1.7 2.8v7.8c0 1.6.7 2.7 2.1 3.3 2.1.9 4.1.8 6.1-.6.5-.4 1.1-1.2 1.6-1.8z"/><path class="st0" fill="#5AA5DC" d="M227.9 13.9v10c0 1.9 1 2.7 2.5 3 1.1.2 2.1.1 3.1-.4.1-.1.2-.2.4-.3V13.8h3.3v15.9c0 .7 0 1.4-.2 2.1-.5 1.7-1.6 2.9-3.2 3.5-2.8 1-5.4.7-7.8-1-.5-.3-.9-.8-1.3-1.3.7-.7 1.4-1.3 2.1-1.9.2.2.3.3.5.4 1.4 1.2 3 1.6 4.8 1.1 1.2-.3 2.3-1.7 1.9-3.2-1.2.4-2.4.6-3.6.5-2.1-.2-3.9-1-5.1-2.9-.4-.7-.7-1.5-.7-2.3V13.8l3.3.1z"/><path class="st2" fill="none" d="M45.5 33.9h156"/><text transform="matrix(1.0317 0 0 1 46.2 46.455)" class="st1" fill="#6D6F73" font-size="13.52" font-family="'Tahoma',sans-serif">оставайтесь дома, мы привезем</text></svg>