<svg xmlns="http://www.w3.org/2000/svg" width="26" height="23" fill-rule="evenodd"><path fill="#6f7379" class="cls-1" d="M18.2 21.7H7.8a.65.65 0 100 1.3h10.4a.65.65 0 000-1.3zm3.9-18.45l-2.473.01-5.977-1.19V.65a.65.65 0 10-1.3 0v1.42L6.5 3.25H3.9a.65.65 0 100 1.3l2.727-.01 5.723-1.15v16.36a.65.65 0 101.3 0V3.39l5.85 1.16h2.6a.65.65 0 000-1.3zM3.9 5.85C2.6 6.5 0 14.16 0 15.6s1.746 2.6 3.9 2.6 3.9-1.16 3.9-2.6-2.6-9.1-3.9-9.75zm0 11.05c-1.587 0-2.6-.77-2.6-1.3A34.133 34.133 0 013.9 8a34.133 34.133 0 012.6 7.6c0 .53-1.014 1.3-2.6 1.3zM22.1 5.85c-1.3.65-3.9 8.31-3.9 9.75s1.746 2.6 3.9 2.6 3.9-1.16 3.9-2.6-2.6-9.1-3.9-9.75zm0 11.05c-1.587 0-2.6-.77-2.6-1.3A34.186 34.186 0 0122.1 8a34.081 34.081 0 012.6 7.6c0 .53-1.013 1.3-2.6 1.3z"/></svg>